<?xml version="1.0" standalone="no"?>
<!DOCTYPE svg PUBLIC "-//W3C//DTD SVG 20010904//EN"
 "http://www.w3.org/TR/2001/REC-SVG-20010904/DTD/svg10.dtd">
<svg version="1.0" xmlns="http://www.w3.org/2000/svg"
 width="500.000000pt" height="500.000000pt" viewBox="0 0 500.000000 500.000000"
 preserveAspectRatio="xMidYMid meet">

<g transform="translate(0.000000,500.000000) scale(0.100000,-0.100000)"
fill="#000000" stroke="none">
<path d="M2945 3408 c-36 -19 -96 -82 -116 -120 -33 -63 -26 -105 31 -189 28
-41 50 -84 50 -97 0 -14 -19 -44 -49 -75 -78 -82 -87 -138 -26 -153 44 -11 79
6 137 66 65 67 92 133 78 194 -8 38 -14 48 -67 109 -45 51 -43 80 10 131 l42
40 3 -27 c4 -33 31 -49 87 -49 l42 -1 5 -203 c6 -228 13 -254 68 -254 51 0 60
34 60 218 0 88 3 179 6 204 6 43 8 45 66 71 41 18 58 22 54 12 -2 -7 -10 -58
-16 -112 -19 -175 20 -286 125 -357 30 -21 50 -26 97 -26 135 0 198 91 198
284 0 106 -21 204 -55 263 -26 44 -52 59 -85 48 -30 -9 -34 -48 -15 -123 10
-37 19 -110 22 -162 4 -78 1 -101 -14 -129 -26 -50 -58 -58 -92 -23 -40 39
-46 104 -25 256 15 105 15 129 4 156 -21 51 -73 57 -106 12 -9 -13 -14 -12
-34 8 -22 22 -28 23 -121 17 -62 -4 -123 -15 -168 -30 l-71 -23 0 22 c0 12 -7
30 -16 38 -18 18 -79 21 -109 4z"/>
<path d="M310 3388 c-53 -27 -100 -86 -131 -165 -19 -48 -23 -78 -23 -173 -1
-107 1 -119 27 -173 34 -68 85 -107 151 -114 83 -10 182 60 174 123 -5 43 -27
50 -99 32 -35 -8 -72 -13 -83 -10 -41 11 -58 115 -35 224 15 71 38 108 66 108
18 0 23 -7 29 -47 7 -53 27 -83 56 -83 56 0 84 52 74 136 -16 135 -103 195
-206 142z"/>
<path d="M707 3390 c-95 -25 -113 -40 -134 -108 -14 -46 -18 -93 -18 -239 0
-177 1 -182 23 -206 53 -57 102 -58 212 -6 97 46 129 85 102 125 -20 31 -50
34 -114 14 -84 -26 -88 -26 -88 14 0 32 3 34 59 55 77 28 111 55 111 90 0 15
-5 32 -12 39 -17 17 -81 15 -124 -3 l-36 -15 7 38 c4 20 8 37 8 38 1 0 27 11
57 23 119 49 156 89 126 136 -14 21 -24 25 -64 24 -26 0 -77 -9 -115 -19z"/>
<path d="M1413 3397 c-74 -33 -115 -319 -64 -447 24 -62 53 -98 107 -135 29
-20 49 -25 96 -25 135 0 198 91 198 284 0 106 -21 204 -55 263 -26 44 -52 59
-85 48 -30 -9 -34 -48 -15 -123 10 -37 19 -110 22 -162 4 -78 1 -101 -14 -129
-26 -50 -58 -58 -92 -23 -40 39 -46 104 -25 257 16 115 16 128 2 159 -18 37
-42 48 -75 33z"/>
<path d="M2140 3387 c-122 -64 -193 -296 -141 -464 38 -129 139 -189 246 -148
58 21 97 68 93 108 -5 46 -26 53 -99 35 -78 -19 -98 -10 -118 53 -27 83 14
258 63 267 24 5 36 -14 36 -59 0 -68 69 -94 110 -41 19 23 21 37 18 92 -9 151
-96 216 -208 157z"/>
<path d="M4651 3389 c-41 -10 -85 -28 -97 -40 -47 -44 -71 -220 -55 -399 9
-98 12 -106 38 -127 44 -35 80 -38 155 -10 36 14 84 37 107 51 35 23 41 31 41
61 0 25 -6 39 -23 50 -21 13 -30 13 -96 -5 -40 -11 -76 -18 -82 -15 -5 4 -9
17 -9 31 0 20 9 28 48 45 81 34 110 52 121 76 11 24 5 53 -13 65 -18 13 -74 9
-113 -7 -19 -8 -36 -15 -37 -15 -1 0 0 16 2 35 4 33 9 37 91 75 91 43 111 60
111 95 0 56 -63 68 -189 34z"/>
<path d="M1026 3375 c-32 -13 -64 -29 -70 -35 -7 -7 -11 -92 -11 -260 0 -299
-5 -285 113 -284 86 0 136 20 186 73 56 58 44 184 -19 213 -31 14 -31 19 1 49
15 13 35 42 45 64 69 150 -69 252 -245 180z m123 -129 c6 -7 8 -22 5 -32 -26
-70 -84 -101 -84 -45 0 57 17 82 61 90 4 0 12 -5 18 -13z m1 -250 c0 -25 -41
-66 -66 -66 -18 0 -19 61 -2 78 7 7 25 12 40 12 23 0 28 -4 28 -24z"/>
<path d="M2537 3388 c-91 -25 -157 -157 -157 -317 0 -187 70 -295 191 -295
135 0 219 166 192 379 -22 179 -106 265 -226 233z m75 -208 c21 -42 23 -156 4
-210 -17 -46 -48 -52 -73 -14 -26 40 -26 198 0 238 23 35 47 30 69 -14z"/>
<path d="M3981 3371 c-30 -30 -49 -73 -66 -144 -44 -191 -19 -437 46 -437 33
0 60 76 72 203 l11 110 26 -100 c52 -194 95 -241 139 -150 22 46 54 162 67
243 7 47 8 45 26 -79 24 -164 45 -231 76 -235 35 -5 53 51 59 182 12 238 -36
416 -115 424 -28 3 -35 -2 -64 -43 -18 -25 -47 -80 -64 -121 l-31 -75 -18 48
c-27 72 -65 145 -88 171 -25 27 -51 28 -76 3z"/>
<path d="M2221 2519 c-41 -10 -85 -28 -97 -40 -47 -44 -71 -220 -55 -399 9
-98 12 -106 38 -127 44 -35 80 -38 155 -10 36 14 84 37 107 51 35 23 41 31 41
61 0 25 -6 39 -23 50 -21 13 -30 13 -96 -5 -40 -11 -76 -18 -82 -15 -5 4 -9
17 -9 31 0 20 9 28 48 45 81 34 110 52 121 76 11 24 5 53 -13 65 -18 13 -74 9
-113 -7 -19 -8 -36 -15 -37 -15 -1 0 0 16 2 35 4 33 9 37 91 75 91 43 111 60
111 95 0 56 -63 68 -189 34z"/>
<path d="M3617 2524 c-113 -27 -135 -50 -157 -161 -13 -65 -10 -354 5 -386 12
-29 83 -60 122 -54 52 9 181 75 199 102 19 29 11 60 -20 80 -20 13 -30 13 -95
-5 -79 -22 -78 -22 -81 0 -6 37 2 49 38 60 101 32 148 82 122 129 -13 26 -72
29 -125 7 l-35 -15 0 29 c0 36 5 40 110 93 72 36 85 46 88 69 2 15 -2 36 -8
48 -13 24 -73 26 -163 4z"/>
<path d="M1664 2493 c-20 -47 -13 -120 26 -279 36 -144 93 -265 132 -278 23
-8 32 -6 54 15 34 31 60 90 119 269 62 191 71 288 29 304 -43 16 -81 -40 -139
-207 l-42 -120 -23 94 c-46 187 -71 239 -117 239 -18 0 -28 -9 -39 -37z"/>
<path d="M2531 2506 c-32 -34 -58 -127 -72 -252 -22 -207 16 -344 89 -318 35
12 49 55 58 174 l7 91 40 -96 c41 -99 93 -168 135 -180 16 -5 30 1 51 23 94
94 103 523 12 572 -29 15 -56 -1 -71 -42 -7 -18 -15 -91 -17 -162 l-6 -130
-41 120 c-48 137 -59 159 -94 197 -32 33 -61 35 -91 3z"/>
<path d="M3038 2513 c-44 -51 -67 -146 -68 -280 0 -109 24 -185 76 -243 46
-51 90 -70 161 -70 105 0 160 61 183 205 34 210 -81 484 -156 370 -15 -22 -14
-31 6 -119 17 -71 21 -117 19 -186 -4 -85 -6 -93 -31 -115 -34 -29 -63 -23
-90 19 -17 28 -19 43 -14 141 3 61 8 139 11 175 7 81 -7 114 -51 118 -19 2
-36 -3 -46 -15z"/>
<path d="M1351 2484 c-47 -42 -91 -141 -116 -259 -40 -193 -28 -295 35 -295
36 0 62 36 80 112 8 33 17 48 28 48 10 0 33 3 52 6 l35 6 12 -72 c6 -41 18
-79 29 -91 24 -27 62 -21 88 14 18 24 21 42 20 115 -1 98 -35 289 -63 354 -45
105 -126 130 -200 62z m99 -140 c6 -14 10 -47 10 -74 0 -52 -8 -60 -62 -60
l-30 0 7 48 c15 99 53 144 75 86z"/>
<path d="M2048 1619 c-30 -17 -22 -47 18 -64 42 -17 37 -40 -8 -31 -21 4 -28
2 -26 -7 6 -17 56 -21 74 -6 26 21 16 47 -22 59 -43 15 -39 36 7 33 32 -3 33
-2 15 12 -23 17 -34 18 -58 4z"/>
<path d="M2147 1623 c-11 -10 -8 -123 3 -123 6 0 10 28 10 65 0 65 -1 71 -13
58z"/>
<path d="M2197 1623 c-11 -10 -8 -123 3 -123 6 0 10 19 10 43 l0 42 36 -43
c20 -23 40 -40 45 -36 12 7 12 111 -1 119 -6 4 -10 -10 -10 -34 0 -23 -4 -41
-10 -41 -5 0 -10 3 -10 8 -1 14 -57 72 -63 65z"/>
<path d="M2360 1623 c-41 -15 -54 -78 -22 -106 20 -19 67 -23 77 -7 4 6 -6 10
-23 10 -16 0 -35 7 -42 15 -16 20 -4 65 18 66 9 1 22 2 27 4 6 1 15 3 20 4 12
2 -16 21 -30 20 -5 0 -17 -3 -25 -6z"/>
<path d="M2447 1623 c-4 -3 -7 -33 -7 -65 l0 -58 40 0 c22 0 40 5 40 10 0 6
-13 10 -30 10 -20 0 -30 5 -30 15 0 8 9 15 19 15 29 0 35 18 9 22 -13 2 -24
11 -26 21 -3 13 3 17 28 17 18 0 29 4 25 10 -7 11 -58 14 -68 3z"/>
<path d="M2602 1618 c-19 -19 -14 -30 8 -18 33 18 36 -15 6 -54 -14 -19 -26
-37 -26 -40 0 -3 18 -6 40 -6 22 0 40 5 40 10 0 6 -9 10 -21 10 l-21 0 21 34
c25 40 25 40 5 60 -19 19 -36 20 -52 4z"/>
<path d="M2696 1608 c-9 -12 -16 -32 -16 -43 0 -29 28 -65 50 -65 22 0 50 36
50 65 0 29 -28 65 -50 65 -10 0 -26 -10 -34 -22z m53 -20 c10 -28 -1 -63 -20
-63 -15 0 -24 46 -15 71 8 21 26 17 35 -8z"/>
<path d="M2813 1623 c-7 -2 -13 -12 -13 -20 0 -12 3 -13 15 -3 16 13 35 6 35
-14 0 -7 -11 -23 -25 -36 -35 -33 -32 -50 10 -50 19 0 35 5 35 10 0 6 -10 10
-22 10 l-21 0 21 23 c42 45 17 102 -35 80z"/>
<path d="M2904 1616 c-10 -8 -16 -18 -12 -22 4 -4 14 -1 22 5 17 14 36 7 36
-13 0 -7 -13 -25 -30 -41 -16 -16 -30 -32 -30 -37 0 -4 18 -8 40 -8 22 0 40 5
40 10 0 6 -9 10 -21 10 l-20 0 20 26 c24 30 27 54 9 72 -16 16 -30 15 -54 -2z"/>
</g>
</svg>
